<svg width="98" height="52" viewBox="0 0 98 52" fill="none" xmlns="http://www.w3.org/2000/svg">
<path fill-rule="evenodd" clip-rule="evenodd" d="M36.5703 0.592529C36.018 0.592529 35.5703 1.04024 35.5703 1.59253V5.86748C35.5703 6.41977 36.018 6.86748 36.5703 6.86748H72.8972C83.0242 6.86748 90.9777 14.6641 90.9777 24.757C90.9777 25.0425 91.2092 25.274 91.4947 25.274H96.7569C97.0425 25.274 97.274 25.0425 97.274 24.757C97.274 11.2677 86.432 0.592529 72.8972 0.592529H36.5703Z" fill="#6B7B84"/>
<path fill-rule="evenodd" clip-rule="evenodd" d="M7.10658 25.7123C7.10658 25.4702 6.91035 25.274 6.66829 25.274H1.16412C0.922059 25.274 0.72583 25.4702 0.72583 25.7123C0.72583 39.3617 10.9491 50.6312 24.1685 51.3687L66.5101 51.4065C67.0628 51.4069 67.511 50.9591 67.511 50.4065V45.8268C67.511 45.2745 67.0633 44.8268 66.511 44.8268H25.6263C15.3901 44.7985 7.10658 36.2831 7.10658 25.7123Z" fill="#6B7B84"/>
<path fill-rule="evenodd" clip-rule="evenodd" d="M28.1413 39.7925C30.8801 39.7925 33.1615 39.2604 35.4147 38.1656L35.5703 38.0201V30.1856L34.7271 31.265C33.1047 33.0379 30.9258 34.0138 28.4606 34.0138C23.869 34.0138 19.2574 31.046 19.2574 25.3739C19.2574 21.0876 22.4379 16.5321 28.2992 16.5321C29.4687 16.5321 32.3128 16.8086 34.723 19.3681L35.5703 20.4118V12.6129L35.4216 12.4654C33.1257 11.3148 30.7841 10.7555 28.1135 10.7555C23.5465 10.7555 19.9819 11.9578 17.1437 14.4291C15.3433 15.9778 12.3406 19.4486 12.3406 25.2924C12.3406 29.6132 13.8792 32.9876 17.1667 35.9145C20.225 38.5963 23.6161 39.7925 28.1413 39.7925Z" fill="#6B7B84"/>
<path fill-rule="evenodd" clip-rule="evenodd" d="M47.911 17.2888H49.2753C50.5268 17.2888 51.9532 17.3571 53.0327 18.093C53.5599 18.4695 54.4443 19.3412 54.4443 20.9246C54.4443 22.0946 53.9273 23.1437 53.0732 23.7984C51.9782 24.5932 50.6767 24.5476 49.6308 24.5476H47.911V17.2888ZM50.9767 29.818C54.2081 29.818 56.7375 28.8859 58.494 27.1299C60.6547 24.9737 60.9777 22.0075 60.9777 20.4437C60.9777 18.7704 60.5811 15.5067 57.9209 13.1436C55.7405 11.2329 53.414 10.7555 50.1322 10.7555H41.3777V39.7925H48.0363V29.818H50.9767Z" fill="#6B7B84"/>
<path fill-rule="evenodd" clip-rule="evenodd" d="M80.9527 24.4688C79.505 23.1862 77.4843 22.4426 75.1908 21.6714C73.5566 21.1028 72.6562 20.7895 72.0559 20.2422C71.5821 19.84 71.3709 19.4034 71.3709 18.8263C71.3709 17.5623 72.2298 16.2114 74.6411 16.2114C76.2798 16.2114 77.6518 16.9121 78.7194 18.2932L79.1432 18.8415L82.6594 14.3657L82.3389 14.0446C80.1883 11.8926 77.3545 10.7555 74.1436 10.7555C67.6654 10.7555 64.7655 14.97 64.7655 19.147C64.7655 21.3884 65.5648 23.1961 67.1364 24.5176C68.5434 25.7235 70.2592 26.3993 71.9051 26.9508L72.0911 27.0125C73.5527 27.4956 75.0643 27.9955 75.9671 28.8035C76.5952 29.3806 76.8751 30.0078 76.8751 30.8369C76.8751 32.7369 75.3787 34.0138 73.1517 34.0138C71.3913 34.0138 69.0732 33.1509 67.8468 30.7298L67.526 30.0954L63.1555 34.1412L63.4132 34.5058C64.8076 36.4802 67.9542 39.7925 73.3591 39.7925C79.3188 39.7925 83.4814 35.961 83.4814 30.4752C83.4814 27.3376 82.1048 25.4753 80.9527 24.4688Z" fill="#6B7B84"/>
<path fill-rule="evenodd" clip-rule="evenodd" d="M36.5703 0.592529C36.018 0.592529 35.5703 1.04024 35.5703 1.59253V5.86748C35.5703 6.41977 36.018 6.86748 36.5703 6.86748H72.8972C83.0242 6.86748 90.9777 14.6641 90.9777 24.757C90.9777 25.0425 91.2092 25.274 91.4947 25.274H96.7569C97.0425 25.274 97.274 25.0425 97.274 24.757C97.274 11.2677 86.432 0.592529 72.8972 0.592529H36.5703Z" stroke="#80949F" stroke-width="0.5"/>
<path fill-rule="evenodd" clip-rule="evenodd" d="M7.10658 25.7123C7.10658 25.4702 6.91035 25.274 6.66829 25.274H1.16412C0.922059 25.274 0.72583 25.4702 0.72583 25.7123C0.72583 39.3617 10.9491 50.6312 24.1685 51.3687L66.5101 51.4065C67.0628 51.4069 67.511 50.9591 67.511 50.4065V45.8268C67.511 45.2745 67.0633 44.8268 66.511 44.8268H25.6263C15.3901 44.7985 7.10658 36.2831 7.10658 25.7123Z" stroke="#80949F" stroke-width="0.5"/>
<path fill-rule="evenodd" clip-rule="evenodd" d="M28.1413 39.7925C30.8801 39.7925 33.1615 39.2604 35.4147 38.1656L35.5703 38.0201V30.1856L34.7271 31.265C33.1047 33.0379 30.9258 34.0138 28.4606 34.0138C23.869 34.0138 19.2574 31.046 19.2574 25.3739C19.2574 21.0876 22.4379 16.5321 28.2992 16.5321C29.4687 16.5321 32.3128 16.8086 34.723 19.3681L35.5703 20.4118V12.6129L35.4216 12.4654C33.1257 11.3148 30.7841 10.7555 28.1135 10.7555C23.5465 10.7555 19.9819 11.9578 17.1437 14.4291C15.3433 15.9778 12.3406 19.4486 12.3406 25.2924C12.3406 29.6132 13.8792 32.9876 17.1667 35.9145C20.225 38.5963 23.6161 39.7925 28.1413 39.7925Z" stroke="#80949F" stroke-width="0.5"/>
<path fill-rule="evenodd" clip-rule="evenodd" d="M47.911 17.2888H49.2753C50.5268 17.2888 51.9532 17.3571 53.0327 18.093C53.5599 18.4695 54.4443 19.3412 54.4443 20.9246C54.4443 22.0946 53.9273 23.1437 53.0732 23.7984C51.9782 24.5932 50.6767 24.5476 49.6308 24.5476H47.911V17.2888ZM50.9767 29.818C54.2081 29.818 56.7375 28.8859 58.494 27.1299C60.6547 24.9737 60.9777 22.0075 60.9777 20.4437C60.9777 18.7704 60.5811 15.5067 57.9209 13.1436C55.7405 11.2329 53.414 10.7555 50.1322 10.7555H41.3777V39.7925H48.0363V29.818H50.9767Z" stroke="#80949F" stroke-width="0.5"/>
<path fill-rule="evenodd" clip-rule="evenodd" d="M80.9527 24.4688C79.505 23.1862 77.4843 22.4426 75.1908 21.6714C73.5566 21.1028 72.6562 20.7895 72.0559 20.2422C71.5821 19.84 71.3709 19.4034 71.3709 18.8263C71.3709 17.5623 72.2298 16.2114 74.6411 16.2114C76.2798 16.2114 77.6518 16.9121 78.7194 18.2932L79.1432 18.8415L82.6594 14.3657L82.3389 14.0446C80.1883 11.8926 77.3545 10.7555 74.1436 10.7555C67.6654 10.7555 64.7655 14.97 64.7655 19.147C64.7655 21.3884 65.5648 23.1961 67.1364 24.5176C68.5434 25.7235 70.2592 26.3993 71.9051 26.9508L72.0911 27.0125C73.5527 27.4956 75.0643 27.9955 75.9671 28.8035C76.5952 29.3806 76.8751 30.0078 76.8751 30.8369C76.8751 32.7369 75.3787 34.0138 73.1517 34.0138C71.3913 34.0138 69.0732 33.1509 67.8468 30.7298L67.526 30.0954L63.1555 34.1412L63.4132 34.5058C64.8076 36.4802 67.9542 39.7925 73.3591 39.7925C79.3188 39.7925 83.4814 35.961 83.4814 30.4752C83.4814 27.3376 82.1048 25.4753 80.9527 24.4688Z" stroke="#80949F" stroke-width="0.5"/>
</svg>
